<?xml version="1.0" encoding="UTF-8" standalone="no"?>
<!-- Created with Inkscape (http://www.inkscape.org/) -->

<svg
   xmlns:dc="http://purl.org/dc/elements/1.1/"
   xmlns:cc="http://creativecommons.org/ns#"
   xmlns:rdf="http://www.w3.org/1999/02/22-rdf-syntax-ns#"
   xmlns:svg="http://www.w3.org/2000/svg"
   xmlns="http://www.w3.org/2000/svg"
   xmlns:xlink="http://www.w3.org/1999/xlink"
   xmlns:sodipodi="http://sodipodi.sourceforge.net/DTD/sodipodi-0.dtd"
   xmlns:inkscape="http://www.inkscape.org/namespaces/inkscape"
   width="210mm"
   height="297mm"
   id="svg2"
   version="1.1"
   inkscape:version="0.48.4 r9939"
   sodipodi:docname="icon.svg"
   inkscape:export-filename="/home/sheila/Documentos/UlisesMap/UlisesMap/icon/icon.png"
   inkscape:export-xdpi="90"
   inkscape:export-ydpi="90">
  <defs
     id="defs4">
    <linearGradient
       inkscape:collect="always"
       id="linearGradient4086">
      <stop
         style="stop-color:#999999;stop-opacity:1;"
         offset="0"
         id="stop4088" />
      <stop
         style="stop-color:#999999;stop-opacity:0;"
         offset="1"
         id="stop4090" />
    </linearGradient>
    <linearGradient
       inkscape:collect="always"
       id="linearGradient4004">
      <stop
         style="stop-color:#ffffff;stop-opacity:1;"
         offset="0"
         id="stop4006" />
      <stop
         style="stop-color:#ffffff;stop-opacity:0;"
         offset="1"
         id="stop4008" />
    </linearGradient>
    <linearGradient
       inkscape:collect="always"
       id="linearGradient3918">
      <stop
         style="stop-color:#ffffff;stop-opacity:1;"
         offset="0"
         id="stop3920" />
      <stop
         style="stop-color:#ffffff;stop-opacity:0;"
         offset="1"
         id="stop3922" />
    </linearGradient>
    <linearGradient
       inkscape:collect="always"
       id="linearGradient3838">
      <stop
         style="stop-color:#1a1a1a;stop-opacity:0.42366412"
         offset="0"
         id="stop3840" />
      <stop
         style="stop-color:#ffffff;stop-opacity:1"
         offset="1"
         id="stop3842" />
    </linearGradient>
    <linearGradient
       inkscape:collect="always"
       xlink:href="#linearGradient3838"
       id="linearGradient3836"
       x1="245.14284"
       y1="375.79074"
       x2="342.28568"
       y2="290.64795"
       gradientUnits="userSpaceOnUse"
       gradientTransform="matrix(0.9781213,0,0,1.1861149,1.3017529,-125.89128)" />
    <linearGradient
       inkscape:collect="always"
       xlink:href="#linearGradient3918"
       id="linearGradient3924"
       x1="199.3421"
       y1="562.23059"
       x2="428.94736"
       y2="652.36218"
       gradientUnits="userSpaceOnUse"
       gradientTransform="matrix(0.9781213,0,0,1.1861149,-4.0896301,-126.61771)" />
    <linearGradient
       inkscape:collect="always"
       xlink:href="#linearGradient3918-3"
       id="linearGradient3924-5"
       x1="199.3421"
       y1="562.23059"
       x2="428.94736"
       y2="652.36218"
       gradientUnits="userSpaceOnUse" />
    <linearGradient
       inkscape:collect="always"
       id="linearGradient3918-3">
      <stop
         style="stop-color:#ffffff;stop-opacity:1;"
         offset="0"
         id="stop3920-5" />
      <stop
         style="stop-color:#ffffff;stop-opacity:0;"
         offset="1"
         id="stop3922-3" />
    </linearGradient>
    <linearGradient
       inkscape:collect="always"
       xlink:href="#linearGradient4004"
       id="linearGradient3992"
       x1="459.33151"
       y1="408.07324"
       x2="312.95786"
       y2="330.29309"
       gradientUnits="userSpaceOnUse"
       gradientTransform="matrix(0.9781213,0,0,1.1861149,1.3017529,-125.89128)" />
    <linearGradient
       inkscape:collect="always"
       xlink:href="#linearGradient4086"
       id="linearGradient4092"
       x1="289"
       y1="334.36218"
       x2="459.25"
       y2="335.55325"
       gradientUnits="userSpaceOnUse" />
  </defs>
  <sodipodi:namedview
     id="base"
     pagecolor="#ffffff"
     bordercolor="#666666"
     borderopacity="1.0"
     inkscape:pageopacity="0.0"
     inkscape:pageshadow="2"
     inkscape:zoom="1"
     inkscape:cx="312.82299"
     inkscape:cy="612.58286"
     inkscape:document-units="px"
     inkscape:current-layer="layer1"
     showgrid="false"
     inkscape:window-width="1440"
     inkscape:window-height="843"
     inkscape:window-x="0"
     inkscape:window-y="25"
     inkscape:window-maximized="1" />
  <metadata
     id="metadata7">
    <rdf:RDF>
      <cc:Work
         rdf:about="">
        <dc:format>image/svg+xml</dc:format>
        <dc:type
           rdf:resource="http://purl.org/dc/dcmitype/StillImage" />
        <dc:title></dc:title>
      </cc:Work>
    </rdf:RDF>
  </metadata>
  <g
     inkscape:label="Capa 1"
     inkscape:groupmode="layer"
     id="layer1">
    <path
       sodipodi:type="arc"
       style="fill:#3771c8;fill-opacity:1;stroke:none"
       id="path3870"
       sodipodi:cx="313.48685"
       sodipodi:cy="604.66479"
       sodipodi:rx="255.5921"
       sodipodi:ry="69.40789"
       d="m 569.07895,604.66479 a 255.5921,69.40789 0 1 1 -0.0948,-1.89066"
       sodipodi:start="0"
       sodipodi:end="6.255942"
       sodipodi:open="true"
       transform="matrix(0.9781213,0,0,1.1861149,0.65825202,-122.76993)"
       inkscape:export-filename="/local/git/UlisesMap/UlisesMapAndroidClient/res/drawable-xxhdpi/icon.png"
       inkscape:export-xdpi="25.920464"
       inkscape:export-ydpi="25.920464" />
    <path
       style="fill:#000000;stroke:#000000;stroke-width:1.07710922px;stroke-linecap:butt;stroke-linejoin:miter;stroke-opacity:1"
       d="m 204.75098,591.62952 c 0,0 -15.0333,2.7461 -19.56243,-10e-6 -0.7673,-0.46524 -6.07854,-9.48892 -6.14819,-9.48892 -0.35144,0 -2.50436,15.88853 -2.79462,16.94451 -2.7497,10.00322 -18.21643,0.99711 -17.88565,14.23337 0,-17.23008 -2.48628,-53.88415 8.3839,-71.16689 -12.65359,-121.58275 57.03558,-254.70059 102.1452,-285.19773 9.12225,-22.12414 0.69585,-63.59617 -16.76228,-77.64272 25.41255,-12.81734 49.52497,39.11217 62.17366,54.45057 91.74688,3.19332 145.91818,33.23455 181.09218,94.2114 9.06875,16.49578 16.24479,32.13236 1.67677,37.95568 -24.51391,9.79901 -84.6668,-3.09741 -83.83897,1.35555 -7.16605,18.34511 -28.72214,31.99392 -45.83197,25.07787 -3.59218,-1.45202 -8.29324,-2.63784 -11.73745,-5.42224 -1.87512,-1.51589 -5.81139,-12.60407 -3.35356,-8.13336 -102.65934,5.83634 -153.50586,78.07289 -163.20653,150.46715 -5.48866,22.38383 -3.68837,30.74276 15.64994,62.35577 z"
       id="path3020"
       inkscape:connector-curvature="0"
       sodipodi:nodetypes="ccccccccccscssccc"
       inkscape:export-filename="/local/git/UlisesMap/UlisesMapAndroidClient/res/drawable-xxhdpi/icon.png"
       inkscape:export-xdpi="25.920464"
       inkscape:export-ydpi="25.920464" />
    <path
       style="opacity:0.9;fill:#1a1a1a;stroke:none"
       d="m 204.67996,348.23781 c 47.90092,-110.87334 175.64389,-142.57543 268.9636,-47.84414 -26.86322,33.50775 -108.16705,46.8558 -137.07324,42.08873 -33.15381,-6.04405 -101.03306,-14.49608 -131.89036,5.75541 z"
       id="path4068"
       inkscape:connector-curvature="0"
       sodipodi:nodetypes="cccc"
       inkscape:export-filename="/local/git/UlisesMap/UlisesMapAndroidClient/res/drawable-xxhdpi/icon.png"
       inkscape:export-xdpi="25.920464"
       inkscape:export-ydpi="25.920464" />
    <path
       style="fill:url(#linearGradient3992);fill-opacity:1;stroke:none"
       d="m 412.16936,367.16699 c 26.32351,4.76626 62.67918,6.78761 84.11606,-0.0708 -29.30807,-7.29739 -44.90781,-26.08231 -52.47438,-28.13265 -13.88504,0.76668 -20.59819,0.43366 -36.88913,10.84446 6.28837,13.94596 14.28171,11.40529 7.29828,17.35904 z"
       id="path3054"
       inkscape:connector-curvature="0"
       sodipodi:nodetypes="cccccc"
       inkscape:export-filename="/local/git/UlisesMap/UlisesMapAndroidClient/res/drawable-xxhdpi/icon.png"
       inkscape:export-xdpi="25.920464"
       inkscape:export-ydpi="25.920464" />
    <path
       style="fill:#ffffff;fill-opacity:1;stroke:none"
       d="m 262.10844,408.09181 37.22147,-17.1496 c -18.3395,-22.02952 -35.89577,-48.56335 -59.80513,-31.17789 -14.94778,12.82908 -32.97666,42.87209 -29.62311,64.3891 7.7919,8.86094 29.2531,-26.14844 37.44808,-29.82231 23.02287,-5.4028 14.3238,15.72009 14.75869,13.7607 z"
       id="path3050"
       inkscape:connector-curvature="0"
       sodipodi:nodetypes="cccccc"
       inkscape:export-filename="/local/git/UlisesMap/UlisesMapAndroidClient/res/drawable-xxhdpi/icon.png"
       inkscape:export-xdpi="25.920464"
       inkscape:export-ydpi="25.920464" />
    <path
       style="fill:#ffffff;stroke:#ffffff;stroke-width:1.07710922px;stroke-linecap:butt;stroke-linejoin:miter;stroke-opacity:1"
       d="m 424.968,310.35081 c -1.74838,-10.06805 33.72933,0.0269 37.44809,13.55561 2.1874,7.95762 -11.72833,10.51113 -20.12136,5.42225 -9.19452,-5.57486 -13.27952,-10.23691 -17.32673,-18.97786 z"
       id="path3026"
       inkscape:connector-curvature="0"
       sodipodi:nodetypes="cssc"
       inkscape:export-filename="/local/git/UlisesMap/UlisesMapAndroidClient/res/drawable-xxhdpi/icon.png"
       inkscape:export-xdpi="25.920464"
       inkscape:export-ydpi="25.920464" />
    <path
       style="fill:url(#linearGradient3924);fill-opacity:1;stroke:none"
       d="m 251.20008,494.86214 c -26.4063,27.81714 -45.50097,70.34803 -30.06442,100.79432 46.44254,73.01253 197.63806,-12.61375 236.16483,-20.2888 -64.39018,50.85682 -266.18183,151.25751 -304.37591,38.23659 -15.5749,-96.1637 72.02038,-128.13047 98.2755,-118.74211 z"
       id="path3892"
       inkscape:connector-curvature="0"
       sodipodi:nodetypes="ccccc"
       inkscape:export-filename="/local/git/UlisesMap/UlisesMapAndroidClient/res/drawable-xxhdpi/icon.png"
       inkscape:export-xdpi="25.920464"
       inkscape:export-ydpi="25.920464" />
    <path
       style="opacity:0.9;fill:#1a1a1a;stroke:#000000;stroke-width:1.07710922px;stroke-linecap:butt;stroke-linejoin:miter;stroke-opacity:1"
       d="m 384.46901,354.03865 c -9.88839,-0.333 -20.16199,6.49829 -31.74925,21.79278 0,20.97357 79.33403,-12.86724 31.74925,-21.79278 z"
       id="path4070"
       inkscape:connector-curvature="0"
       sodipodi:nodetypes="ccc"
       inkscape:export-filename="/local/git/UlisesMap/UlisesMapAndroidClient/res/drawable-xxhdpi/icon.png"
       inkscape:export-xdpi="25.920464"
       inkscape:export-ydpi="25.920464" />
    <path
       style="fill:url(#linearGradient3836);fill-opacity:1;stroke:none"
       d="m 285.2364,304.25081 c -4.02609,-34.82639 13.52219,-37.30484 3.91247,-47.4446 -9.14991,-11.09561 -35.63049,12.0293 -41.36055,18.97783 -16.52549,19.04232 -52.9641,79.95792 -46.3909,85.40028 -2.4537,-2.69725 10.78804,-23.13729 17.32673,-35.92235 5.79945,-7.03268 39.63916,-52.89387 48.62661,-47.44458 3.88343,8.08849 10.71595,22.08626 17.88564,26.43342 z"
       id="path3060"
       inkscape:connector-curvature="0"
       sodipodi:nodetypes="ccccccc"
       inkscape:export-filename="/local/git/UlisesMap/UlisesMapAndroidClient/res/drawable-xxhdpi/icon.png"
       inkscape:export-xdpi="25.920464"
       inkscape:export-ydpi="25.920464" />
  </g>
</svg>
